<!--?xml version="1.0" standalone="no"?-->
              <svg id="sw-js-blob-svg" viewBox="0 0 100 100" xmlns="http://www.w3.org/2000/svg" version="1.1">
                    <defs> 
                        <linearGradient id="sw-gradient" x1="0" x2="1" y1="1" y2="0">
                            <stop id="stop1" stop-color="rgba(28, 216, 210, 1)" offset="0%"></stop>
                            <stop id="stop2" stop-color="rgba(147, 237, 199, 1)" offset="100%"></stop>
                        </linearGradient>
                    </defs>
                <path fill="url(#sw-gradient)" d="M22.4,-26.4C30.3,-20,39,-14.2,40.9,-6.7C42.8,0.7,37.8,9.8,32,17.3C26.3,24.7,19.7,30.4,12.4,32.3C5.1,34.1,-2.9,32.1,-12.2,30.2C-21.6,28.3,-32.3,26.5,-38,20.2C-43.8,13.9,-44.7,2.9,-42.4,-7.1C-40.2,-17.1,-34.8,-26.1,-27.3,-32.6C-19.7,-39.1,-9.8,-43,-1.3,-41.4C7.2,-39.9,14.4,-32.8,22.4,-26.4Z" width="100%" height="100%" transform="translate(50 50)" stroke-width="0" style="transition: all 0.3s ease 0s;"></path>
              </svg>