<!--?xml version="1.0" standalone="no"?-->
              <svg id="sw-js-blob-svg" viewBox="0 0 100 100" xmlns="http://www.w3.org/2000/svg" version="1.1">
                    <defs> 
                        <linearGradient id="sw-gradient" x1="0" x2="1" y1="1" y2="0">
                            <stop id="stop1" stop-color="rgba(31, 162, 255, 1)" offset="0%"></stop>
                            <stop id="stop2" stop-color="rgba(18, 216, 250, 1)" offset="100%"></stop>
                        </linearGradient>
                    </defs>
                <path fill="url(#sw-gradient)" d="M20.7,-35.1C24.4,-29.8,23.5,-20,24.6,-12.7C25.7,-5.3,29,-0.3,30.9,6.3C32.8,12.9,33.3,21.1,30.1,27.5C26.8,33.9,19.7,38.4,12.4,39.3C5,40.1,-2.5,37.3,-7.4,32.5C-12.2,27.7,-14.3,21,-17.9,16C-21.4,11,-26.4,7.7,-29.7,2.6C-33.1,-2.5,-34.8,-9.6,-33.3,-16.2C-31.8,-22.8,-27.2,-29,-21.1,-33.3C-15.1,-37.6,-7.5,-40,0.5,-40.7C8.5,-41.5,16.9,-40.5,20.7,-35.1Z" width="100%" height="100%" transform="translate(50 50)" stroke-width="0" style="transition: all 0.3s ease 0s;"></path>
              </svg>