<!--?xml version="1.0" standalone="no"?-->
              <svg id="sw-js-blob-svg" viewBox="0 0 100 100" xmlns="http://www.w3.org/2000/svg" version="1.1">
                    <defs> 
                        <linearGradient id="sw-gradient" x1="0" x2="1" y1="1" y2="0">
                            <stop id="stop1" stop-color="rgba(255, 255, 255, 1)" offset="0%"></stop>
                            <stop id="stop2" stop-color="rgba(255, 255, 255, 1)" offset="100%"></stop>
                        </linearGradient>
                    </defs>
                <path fill="url(#sw-gradient)" d="M20,-27C27,-22.5,34.3,-18,36.8,-11.7C39.3,-5.3,36.8,2.9,33.7,10.5C30.6,18,26.8,24.8,21,28.9C15.3,33,7.7,34.4,0,34.3C-7.6,34.2,-15.1,32.7,-21.6,28.9C-28,25,-33.4,18.8,-36.5,11.3C-39.6,3.9,-40.5,-4.8,-38.7,-13.2C-36.8,-21.6,-32.2,-29.7,-25.2,-34.2C-18.3,-38.7,-9.2,-39.6,-1.3,-37.8C6.5,-36,13.1,-31.5,20,-27Z" width="100%" height="100%" transform="translate(50 50)" stroke-width="0" style="transition: all 0.3s ease 0s;"></path>
              </svg>